<?xml version="1.0" encoding="UTF-8"?>
<svg width="24px" height="24px" viewBox="0 0 24 24" version="1.1" xmlns="http://www.w3.org/2000/svg">
  <g stroke="none" stroke-width="1" fill="none" fill-rule="evenodd">
    <path d="M19.5,11 C20.8807119,11 22,9.8807119 22,8.5 C22,7.1192881 20.8807119,6 19.5,6 C18.1192881,6 17,7.1192881 17,8.5 C17,9.8807119 18.1192881,11 19.5,11 Z M17.1313169,10.6313169 C16.7354634,10.2354634 16.4775897,9.70736588 16.4081764,9.1372346 L16.4081764,9.1372346 L16.4,8.9896893 L16.4,17 C16.4,17.7732 15.7732,18.4 15,18.4 C14.2268,18.4 13.6,17.7732 13.6,17 L13.6,17 L13.6,14.4 L13.6,14.4 L13.6,4 L5.6,4 L5.6,14.4 C5.6,16.0568 6.9432,17.4 8.6,17.4 C9.52485,17.4 10.3529,16.9592 10.8729,16.2745 L10.8729,16.2745 C11.009,16.1013 11.1284,15.9162 11.2293,15.7214 L11.2293,15.7214 C11.3037,15.5812 11.3669,15.4346 11.4185,15.283 L11.4185,15.283 C11.5041,15.0354 11.5572,14.7728 11.5871,14.5 L11.5871,14.5 L11.6,14.4 L11.6,14.4 L11.6,4 L7.6,4 L7.6,14.4 C7.6,14.9522 7.9478,15.4 8.5,15.4 C9.0522,15.4 9.4,14.9522 9.4,14.4 L9.4,14.4 L9.4,4 L4,4 L4,14.5 C4,18.0898 6.9102,21 10.5,21 C13.7865,21 16.5163,18.5795 16.9362,15.4062 L16.9362,15.4062 L17,14.5 L17,11.9979151 C17.0338287,11.9995385 17.0677706,12 17.1018236,12 C17.1116992,12 17.1215496,11.9998726 17.1313746,11.9996191 L17.1313746,11.9996191 Z M19.5,9 C19.7761424,9 20,8.7761424 20,8.5 C20,8.2238576 19.7761424,8 19.5,8 C19.2238576,8 19,8.2238576 19,8.5 C19,8.7761424 19.2238576,9 19.5,9 Z" fill="#6a4c93" fill-rule="nonzero"></path>
  </g>
</svg> 